HIERARCHY
ROOT Hips
{
    OFFSET 0.000000 0.000000 0.000000
    CHANNELS 6 Xposition Yposition Zposition Zrotation Xrotation Yrotation
    JOINT Spine
    {
        OFFSET -0.000000 7.236184 0.000000
        CHANNELS 3 Zrotation Xrotation Yrotation
        JOINT Spine1
        {
            OFFSET -0.000000 20.420147 0.000000
            CHANNELS 3 Zrotation Xrotation Yrotation
            JOINT Neck
            {
                OFFSET -0.000000 20.336288 1.848754
                CHANNELS 3 Zrotation Xrotation Yrotation
                JOINT Head
                {
                    OFFSET -0.000000 12.354461 -1.764923
                    CHANNELS 3 Zrotation Xrotation Yrotation
                    End Site
                    {
                        OFFSET -0.000000 22.061537 0.000000
                    }
                }
            }
            JOINT LeftShoulder
            {
                OFFSET 3.573296 18.396038 -0.314103
                CHANNELS 3 Zrotation Xrotation Yrotation
                JOINT LeftArm
                {
                    OFFSET 10.880760 0.000000 0.000000
                    CHANNELS 3 Zrotation Xrotation Yrotation
                    JOINT LeftForeArm
                    {
                        OFFSET 27.185530 0.000000 0.000000
                        CHANNELS 3 Zrotation Xrotation Yrotation
                        JOINT LeftHand
                        {
                            OFFSET 27.825975 0.000000 0.000000
                            CHANNELS 3 Zrotation Xrotation Yrotation
                            End Site
                            {
                                OFFSET 13.236923 0.000000 0.000000
                            }
                        }
                    }
                }
            }
            JOINT RightShoulder
            {
                OFFSET -3.474926 18.396038 -0.314103
                CHANNELS 3 Zrotation Xrotation Yrotation
                JOINT RightArm
                {
                    OFFSET -10.880760 0.000000 0.000000
                    CHANNELS 3 Zrotation Xrotation Yrotation
                    JOINT RightForeArm
                    {
                        OFFSET -27.185530 0.000000 0.000000
                        CHANNELS 3 Zrotation Xrotation Yrotation
                        JOINT RightHand
                        {
                            OFFSET -27.825975 0.000000 0.000000
                            CHANNELS 3 Zrotation Xrotation Yrotation
                            End Site
                            {
                                OFFSET -13.236923 0.000000 0.000000
                            }
                        }
                    }
                }
            }
        }
    }
    JOINT LeftUpLeg
    {
        OFFSET 8.824615 0.000000 0.000000
        CHANNELS 3 Zrotation Xrotation Yrotation
        JOINT LeftLeg
        {
            OFFSET -0.000000 -35.111282 0.000000
            CHANNELS 3 Zrotation Xrotation Yrotation
            JOINT LeftFoot
            {
                OFFSET -0.000000 -42.324711 0.000000
                CHANNELS 3 Zrotation Xrotation Yrotation
                JOINT LeftToeBase
                {
                    OFFSET -0.000000 -5.735999 13.236923
                    CHANNELS 3 Zrotation Xrotation Yrotation
                    End Site
                    {
                        OFFSET -0.000000 0.000000 3.529846
                    }
                }
            }
        }
    }
    JOINT RightUpLeg
    {
        OFFSET -8.824615 0.000000 0.000000
        CHANNELS 3 Zrotation Xrotation Yrotation
        JOINT RightLeg
        {
            OFFSET -0.000000 -35.111282 0.000000
            CHANNELS 3 Zrotation Xrotation Yrotation
            JOINT RightFoot
            {
                OFFSET -0.000000 -42.324711 0.000000
                CHANNELS 3 Zrotation Xrotation Yrotation
                JOINT RightToeBase
                {
                    OFFSET -0.000000 -5.735999 13.236923
                    CHANNELS 3 Zrotation Xrotation Yrotation
                    End Site
                    {
                        OFFSET -0.000000 0.000000 3.529846
                    }
                }
            }
        }
    }
}
MOTION
Frames:    7
Frame Time:    0.008333
-27.383636    82.822815    95.342377    -6.960136    -7.633703    152.013733    -2.650643    -14.999728    1.915523    1.622494    6.301744    2.175238    3.901260    8.871443    2.072919    5.073511    -8.477017    2.978156    -1.207031    17.327847    -0.052501    -43.481743    44.692760    -39.872498    2.034626    -5.197213    -14.308562    16.156675    -4.610327    2.350238    6.543354    20.713549    -3.703237    39.637474    43.575340    39.897964    -2.681970    -14.470566    16.550003    -19.545208    -12.993535    -6.555680    -0.566030    -15.151877    -2.206126    -0.698835    15.404647    -0.555289    -1.976382    -8.710319    -8.842415    -0.426796    -0.234970    0.473288    -9.840327    -15.210944    -0.531086    3.244625    16.443197    1.467740    0.167619    -5.761088    -14.656931    0.053669    -3.699474    -0.058348    
-27.513641    82.831429    95.252144    -7.000503    -7.660635    151.804489    -2.636152    -15.004956    1.901669    1.637177    6.286994    2.159012    3.889753    8.844913    2.133151    4.966406    -8.448548    3.016444    -1.185630    17.312824    -0.031072    -43.597904    44.521278    -39.737316    2.156651    -5.363053    -14.490881    16.474298    -4.759693    2.289687    6.523502    20.719316    -3.700286    39.643665    43.613461    39.870647    -2.729842    -14.225717    16.564896    -19.161589    -12.796309    -6.348351    -0.602481    -14.974820    -2.144209    -0.807101    15.077332    -0.427052    -1.866057    -8.673901    -8.785967    -0.394934    -0.180780    0.437914    -9.952582    -15.483200    -0.594385    3.330070    16.749815    1.354220    0.166692    -5.641638    -14.686726    -0.030367    -3.788247    0.033025    
-27.642107    82.839973    95.163177    -7.040479    -7.687644    151.596985    -2.622459    -15.010103    1.887729    1.652761    6.272258    2.142706    3.879295    8.818510    2.192787    4.860311    -8.419126    3.054269    -1.163965    17.297625    -0.010139    -43.713737    44.349724    -39.600368    2.276376    -5.530906    -14.676926    16.778664    -4.910593    2.235321    6.504274    20.725142    -3.697701    39.647873    43.651279    39.844116    -2.778384    -13.981716    16.581047    -18.786077    -12.597098    -6.146752    -0.638837    -14.800369    -2.076836    -0.911775    14.752394    -0.305820    -1.757740    -8.635845    -8.731073    -0.363077    -0.126710    0.402550    -10.062305    -15.754375    -0.659965    3.416202    17.054544    1.238024    0.161362    -5.521936    -14.720712    -0.111009    -3.878934    0.120732    
-27.766520    82.848297    95.077438    -7.079394    -7.714775    151.394547    -2.610074    -15.015028    1.873763    1.669449    6.257195    2.126542    3.870814    8.792825    2.250738    4.756951    -8.388266    3.090783    -1.141847    17.281937    0.010074    -43.829834    44.179607    -39.460716    2.390419    -5.698411    -14.867299    17.059887    -5.060986    2.188725    6.486005    20.731575    -3.696342    39.648991    43.688431    39.820545    -2.827774    -13.741909    16.598669    -18.427666    -12.398242    -5.954907    -0.673521    -14.632318    -2.000172    -1.010725    14.435716    -0.197093    -1.654048    -8.595358    -8.678956    -0.331515    -0.073440    0.367521    -10.167367    -16.020632    -0.728749    3.504884    17.352467    1.113644    0.147203    -5.403533    -14.758224    -0.184694    -3.974297    0.200896    
-27.885876    82.856308    94.995811    -7.117327    -7.742139    151.197922    -2.599657    -15.019548    1.859770    1.687630    6.241408    2.110517    3.864431    8.768292    2.306550    4.657472    -8.355948    3.125855    -1.119170    17.265842    0.029837    -43.946964    44.010269    -39.317364    2.496514    -5.864676    -15.063745    17.312983    -5.210294    2.149688    6.468411    20.738825    -3.696643    39.647362    43.724712    39.800655    -2.878706    -13.507378    16.618326    -18.090357    -12.200424    -5.774462    -0.705998    -14.472433    -1.910944    -1.102801    14.129828    -0.103693    -1.556505    -8.551762    -8.630295    -0.300247    -0.021954    0.332826    -10.267400    -16.281347    -0.801963    3.598879    17.642454    0.974728    0.120234    -5.287218    -14.798574    -0.249248    -4.076842    0.271152    
-28.001272    82.864044    94.917740    -7.155254    -7.770164    151.004288    -2.591727    -15.023787    1.845572    1.707718    6.224438    2.094536    3.860074    8.744513    2.360851    4.561545    -8.321168    3.159893    -1.095482    17.248922    0.049404    -44.068378    43.837990    -39.166271    2.593845    -6.031788    -15.270857    17.537683    -5.360728    2.117196    6.451462    20.747286    -3.698968    39.642651    43.760441    39.784904    -2.932581    -13.276020    16.640736    -17.771902    -12.001867    -5.603800    -0.736609    -14.319684    -1.805606    -1.188888    13.831883    -0.025444    -1.464547    -8.503774    -8.584931    -0.269090    0.028079    0.298262    -10.363884    -16.540457    -0.881258    3.702061    17.928772    0.813182    0.077166    -5.172774    -14.842763    -0.304782    -4.190304    0.331621    
-28.111835    82.871429    94.844055    -7.193719    -7.798781    150.813858    -2.586922    -15.027907    1.831309    1.729445    6.206267    2.078832    3.857805    8.721871    2.413435    4.470660    -8.284676    3.193153    -1.070544    17.231035    0.068713    -44.195427    43.661827    -39.006031    2.679873    -6.199409    -15.489775    17.727915    -5.512263    2.091619    6.435150    20.756786    -3.703857    39.635117    43.795231    39.773876    -2.989712    -13.049978    16.666502    -17.475229    -11.804519    -5.443979    -0.765386    -14.175827    -1.682970    -1.268321    13.544330    0.037088    -1.379340    -8.451140    -8.543431    -0.238811    0.074854    0.264679    -10.456736    -16.797800    -0.966345    3.816859    18.210917    0.622126    0.016179    -5.062474    -14.890844    -0.351289    -4.315391    0.382294    
